<svg xmlns="http://www.w3.org/2000/svg" xmlns:xlink="http://www.w3.org/1999/xlink" version="1.1" width="94.24199166666668px" height="88.04695833333334px" viewBox="0 0 22.618078 21.13127">
<defs>
<path id="g0-68" d="M1.876961-.884682C1.769365-.466252 1.745455-.3467 .908593-.3467C.681445-.3467 .561893-.3467 .561893-.131507C.561893 0 .633624 0 .872727 0H4.662516C7.07746 0 9.432628-2.49863 9.432628-5.164633C9.432628-6.886177 8.404483-8.16538 6.694894-8.16538H2.857285C2.630137-8.16538 2.52254-8.16538 2.52254-7.938232C2.52254-7.81868 2.630137-7.81868 2.809465-7.81868C3.53873-7.81868 3.53873-7.723039 3.53873-7.591532C3.53873-7.567621 3.53873-7.49589 3.490909-7.316563L1.876961-.884682ZM4.399502-7.352428C4.507098-7.79477 4.554919-7.81868 5.021171-7.81868H6.336239C7.460025-7.81868 8.488169-7.208966 8.488169-5.559153C8.488169-4.961395 8.249066-2.881196 7.089415-1.566127C6.75467-1.171606 5.846077-.3467 4.471233-.3467H3.108344C2.940971-.3467 2.917061-.3467 2.84533-.358655C2.713823-.37061 2.701868-.394521 2.701868-.490162C2.701868-.573848 2.725778-.645579 2.749689-.753176L4.399502-7.352428Z"/>
<path id="g0-77" d="M10.855293-7.292653C10.962889-7.699128 10.9868-7.81868 11.835616-7.81868C12.062765-7.81868 12.170361-7.81868 12.170361-8.045828C12.170361-8.16538 12.086675-8.16538 11.859527-8.16538H10.424907C10.126027-8.16538 10.114072-8.153425 9.982565-7.962142L5.618929-1.06401L4.722291-7.902366C4.686426-8.16538 4.674471-8.16538 4.363636-8.16538H2.881196C2.654047-8.16538 2.546451-8.16538 2.546451-7.938232C2.546451-7.81868 2.654047-7.81868 2.833375-7.81868C3.56264-7.81868 3.56264-7.723039 3.56264-7.591532C3.56264-7.567621 3.56264-7.49589 3.514819-7.316563L1.984558-1.219427C1.841096-.645579 1.566127-.382565 .765131-.3467C.729265-.3467 .585803-.334745 .585803-.131507C.585803 0 .6934 0 .74122 0C.980324 0 1.590037-.02391 1.829141-.02391H2.402989C2.570361-.02391 2.773599 0 2.940971 0C3.024658 0 3.156164 0 3.156164-.227148C3.156164-.334745 3.036613-.3467 2.988792-.3467C2.594271-.358655 2.211706-.430386 2.211706-.860772C2.211706-.980324 2.211706-.992279 2.259527-1.159651L3.90934-7.746949H3.921295L4.913574-.32279C4.94944-.035866 4.961395 0 5.068991 0C5.200498 0 5.260274-.095641 5.32005-.203238L10.126027-7.806725H10.137983L8.404483-.884682C8.296887-.466252 8.272976-.3467 7.436115-.3467C7.208966-.3467 7.089415-.3467 7.089415-.131507C7.089415 0 7.197011 0 7.268742 0C7.47198 0 7.711083-.02391 7.914321-.02391H9.325031C9.528269-.02391 9.779328 0 9.982565 0C10.078207 0 10.209714 0 10.209714-.227148C10.209714-.3467 10.102117-.3467 9.92279-.3467C9.193524-.3467 9.193524-.442341 9.193524-.561893C9.193524-.573848 9.193524-.657534 9.217435-.753176L10.855293-7.292653Z"/>
<path id="g0-83" d="M7.591532-8.308842C7.591532-8.416438 7.507846-8.416438 7.483935-8.416438C7.436115-8.416438 7.424159-8.404483 7.280697-8.225156C7.208966-8.141469 6.718804-7.519801 6.706849-7.507846C6.312329-8.284932 5.523288-8.416438 5.021171-8.416438C3.502864-8.416438 2.12802-7.029639 2.12802-5.678705C2.12802-4.782067 2.666002-4.25604 3.251806-4.052802C3.383313-4.004981 4.088667-3.813699 4.447323-3.730012C5.057036-3.56264 5.212453-3.514819 5.463512-3.251806C5.511333-3.19203 5.750436-2.917061 5.750436-2.355168C5.750436-1.243337 4.722291-.095641 3.526775-.095641C2.546451-.095641 1.458531-.514072 1.458531-1.853051C1.458531-2.080199 1.506351-2.367123 1.542217-2.486675C1.542217-2.52254 1.554172-2.582316 1.554172-2.606227C1.554172-2.654047 1.530262-2.713823 1.43462-2.713823C1.327024-2.713823 1.315068-2.689913 1.267248-2.486675L.657534-.035866C.657534-.02391 .609714 .131507 .609714 .143462C.609714 .251059 .705355 .251059 .729265 .251059C.777086 .251059 .789041 .239103 .932503 .059776L1.482441-.657534C1.769365-.227148 2.391034 .251059 3.502864 .251059C5.045081 .251059 6.455791-1.243337 6.455791-2.737733C6.455791-3.239851 6.336239-3.682192 5.881943-4.124533C5.630884-4.375592 5.415691-4.435367 4.315816-4.722291C3.514819-4.937484 3.407223-4.97335 3.19203-5.164633C2.988792-5.36787 2.833375-5.654795 2.833375-6.06127C2.833375-7.065504 3.849564-8.093649 4.985305-8.093649C6.156912-8.093649 6.706849-7.376339 6.706849-6.240598C6.706849-5.929763 6.647073-5.606974 6.647073-5.559153C6.647073-5.451557 6.742715-5.451557 6.77858-5.451557C6.886177-5.451557 6.898132-5.487422 6.945953-5.678705L7.591532-8.308842Z"/>
</defs>
<g id="page1" transform="translate(63.073563 -2.916644)">
<use x="-63.073563" y="11.082023" xlink:href="#g0-77"/>
<use x="-50.499956" y="11.082023" xlink:href="#g0-68"/>
<rect x="-63.073563" y="13.212127" height=".688595" width="22.618078"/>
<use x="-60.734419" y="23.796855" xlink:href="#g0-83"/>
<use x="-52.839096" y="23.796855" xlink:href="#g0-68"/>
</g>
</svg>
