<svg xmlns="http://www.w3.org/2000/svg" xmlns:xlink="http://www.w3.org/1999/xlink" version="1.1" width="155.33007083333334px" height="165.75885000000002px" viewBox="0 0 37.279217 39.782124">
<defs>
<use id="g2-27" xlink:href="#g1-27" transform="scale(1.44)"/>
<path id="g0-80" d="M7.247701 9.193045L1.136219 16.750624C.998496 16.922778 .98128 16.957209 .98128 17.026071C.98128 17.215441 1.136219 17.215441 1.446097 17.215441H15.717698L17.198225 12.928796H16.767839C16.337453 14.219954 15.184019 15.270096 13.720706 15.769344C13.445259 15.855421 12.257394 16.268592 9.726724 16.268592H2.410162L8.38392 8.883167C8.504428 8.728229 8.538859 8.676582 8.538859 8.60772S8.521643 8.521643 8.418351 8.366704L2.823332 .688618H9.640647C11.603207 .688618 15.562759 .809126 16.767839 4.028413H17.198225L15.717698 0H1.446097C.98128 0 .964065 .017215 .964065 .550894L7.247701 9.193045Z"/>
<path id="g3-49" d="M3.443088-7.663263C3.443088-7.938232 3.443088-7.950187 3.203985-7.950187C2.917061-7.627397 2.319303-7.185056 1.08792-7.185056V-6.838356C1.362889-6.838356 1.960648-6.838356 2.618182-7.149191V-.920548C2.618182-.490162 2.582316-.3467 1.530262-.3467H1.159651V0C1.482441-.02391 2.642092-.02391 3.036613-.02391S4.578829-.02391 4.901619 0V-.3467H4.531009C3.478954-.3467 3.443088-.490162 3.443088-.920548V-7.663263Z"/>
<path id="g3-50" d="M5.260274-2.008468H4.99726C4.961395-1.80523 4.865753-1.147696 4.746202-.956413C4.662516-.848817 3.981071-.848817 3.622416-.848817H1.41071C1.733499-1.123786 2.462765-1.888917 2.773599-2.175841C4.590785-3.849564 5.260274-4.471233 5.260274-5.654795C5.260274-7.029639 4.172354-7.950187 2.785554-7.950187S.585803-6.766625 .585803-5.738481C.585803-5.128767 1.111831-5.128767 1.147696-5.128767C1.398755-5.128767 1.709589-5.308095 1.709589-5.69066C1.709589-6.025405 1.482441-6.252553 1.147696-6.252553C1.0401-6.252553 1.016189-6.252553 .980324-6.240598C1.207472-7.053549 1.853051-7.603487 2.630137-7.603487C3.646326-7.603487 4.267995-6.75467 4.267995-5.654795C4.267995-4.638605 3.682192-3.753923 3.000747-2.988792L.585803-.286924V0H4.94944L5.260274-2.008468Z"/>
<path id="g3-61" d="M8.069738-3.873474C8.237111-3.873474 8.452304-3.873474 8.452304-4.088667C8.452304-4.315816 8.249066-4.315816 8.069738-4.315816H1.028144C.860772-4.315816 .645579-4.315816 .645579-4.100623C.645579-3.873474 .848817-3.873474 1.028144-3.873474H8.069738ZM8.069738-1.649813C8.237111-1.649813 8.452304-1.649813 8.452304-1.865006C8.452304-2.092154 8.249066-2.092154 8.069738-2.092154H1.028144C.860772-2.092154 .645579-2.092154 .645579-1.876961C.645579-1.649813 .848817-1.649813 1.028144-1.649813H8.069738Z"/>
<path id="g1-27" d="M6.073225-4.507098C6.228643-4.507098 6.623163-4.507098 6.623163-4.889664C6.623163-5.152677 6.396015-5.152677 6.180822-5.152677H3.53873C1.745455-5.152677 .454296-3.156164 .454296-1.745455C.454296-.729265 1.111831 .119552 2.187796 .119552C3.598506 .119552 5.140722-1.398755 5.140722-3.19203C5.140722-3.658281 5.033126-4.112578 4.746202-4.507098H6.073225ZM2.199751-.119552C1.590037-.119552 1.147696-.585803 1.147696-1.41071C1.147696-2.12802 1.578082-4.507098 3.335492-4.507098C3.849564-4.507098 4.423412-4.25604 4.423412-3.335492C4.423412-2.917061 4.23213-1.912827 3.813699-1.219427C3.383313-.514072 2.737733-.119552 2.199751-.119552Z"/>
<path id="g1-105" d="M3.383313-1.709589C3.383313-1.769365 3.335492-1.817186 3.263761-1.817186C3.156164-1.817186 3.144209-1.78132 3.084433-1.578082C2.773599-.490162 2.283437-.119552 1.888917-.119552C1.745455-.119552 1.578082-.155417 1.578082-.514072C1.578082-.836862 1.721544-1.195517 1.853051-1.554172L2.689913-3.777833C2.725778-3.873474 2.809465-4.088667 2.809465-4.315816C2.809465-4.817933 2.450809-5.272229 1.865006-5.272229C.765131-5.272229 .32279-3.53873 .32279-3.443088C.32279-3.395268 .37061-3.335492 .454296-3.335492C.561893-3.335492 .573848-3.383313 .621669-3.550685C.908593-4.554919 1.362889-5.033126 1.829141-5.033126C1.936737-5.033126 2.139975-5.021171 2.139975-4.638605C2.139975-4.327771 1.984558-3.93325 1.888917-3.670237L1.052055-1.446575C.980324-1.255293 .908593-1.06401 .908593-.848817C.908593-.310834 1.279203 .119552 1.853051 .119552C2.952927 .119552 3.383313-1.625903 3.383313-1.709589ZM3.287671-7.460025C3.287671-7.639352 3.144209-7.854545 2.881196-7.854545C2.606227-7.854545 2.295392-7.591532 2.295392-7.280697C2.295392-6.981818 2.546451-6.886177 2.689913-6.886177C3.012702-6.886177 3.287671-7.197011 3.287671-7.460025Z"/>
<path id="g1-107" d="M3.359402-7.998007C3.371357-8.045828 3.395268-8.117559 3.395268-8.177335C3.395268-8.296887 3.275716-8.296887 3.251806-8.296887C3.239851-8.296887 2.809465-8.261021 2.594271-8.237111C2.391034-8.225156 2.211706-8.201245 1.996513-8.18929C1.709589-8.16538 1.625903-8.153425 1.625903-7.938232C1.625903-7.81868 1.745455-7.81868 1.865006-7.81868C2.47472-7.81868 2.47472-7.711083 2.47472-7.591532C2.47472-7.543711 2.47472-7.519801 2.414944-7.304608L.705355-.466252C.657534-.286924 .657534-.263014 .657534-.191283C.657534 .071731 .860772 .119552 .980324 .119552C1.315068 .119552 1.3868-.143462 1.482441-.514072L2.044334-2.749689C2.905106-2.654047 3.419178-2.295392 3.419178-1.721544C3.419178-1.649813 3.419178-1.601993 3.383313-1.422665C3.335492-1.243337 3.335492-1.099875 3.335492-1.0401C3.335492-.3467 3.789788 .119552 4.399502 .119552C4.94944 .119552 5.236364-.382565 5.332005-.549938C5.583064-.992279 5.738481-1.661768 5.738481-1.709589C5.738481-1.769365 5.69066-1.817186 5.618929-1.817186C5.511333-1.817186 5.499377-1.769365 5.451557-1.578082C5.284184-.956413 5.033126-.119552 4.423412-.119552C4.184309-.119552 4.028892-.239103 4.028892-.6934C4.028892-.920548 4.076712-1.183562 4.124533-1.362889C4.172354-1.578082 4.172354-1.590037 4.172354-1.733499C4.172354-2.438854 3.53873-2.833375 2.438854-2.976837C2.86924-3.239851 3.299626-3.706102 3.466999-3.88543C4.148443-4.65056 4.614695-5.033126 5.164633-5.033126C5.439601-5.033126 5.511333-4.961395 5.595019-4.889664C5.152677-4.841843 4.985305-4.531009 4.985305-4.291905C4.985305-4.004981 5.212453-3.90934 5.379826-3.90934C5.702615-3.90934 5.989539-4.184309 5.989539-4.566874C5.989539-4.913574 5.71457-5.272229 5.176588-5.272229C4.519054-5.272229 3.981071-4.805978 3.132254-3.849564C3.012702-3.706102 2.570361-3.251806 2.12802-3.084433L3.359402-7.998007Z"/>
<path id="g1-121" d="M3.144209 1.338979C2.82142 1.793275 2.355168 2.199751 1.769365 2.199751C1.625903 2.199751 1.052055 2.175841 .872727 1.625903C.908593 1.637858 .968369 1.637858 .992279 1.637858C1.350934 1.637858 1.590037 1.327024 1.590037 1.052055S1.362889 .681445 1.183562 .681445C.992279 .681445 .573848 .824907 .573848 1.41071C.573848 2.020423 1.08792 2.438854 1.769365 2.438854C2.964882 2.438854 4.172354 1.338979 4.507098 .011955L5.678705-4.65056C5.69066-4.710336 5.71457-4.782067 5.71457-4.853798C5.71457-5.033126 5.571108-5.152677 5.391781-5.152677C5.284184-5.152677 5.033126-5.104857 4.937484-4.746202L4.052802-1.231382C3.993026-1.016189 3.993026-.992279 3.897385-.860772C3.658281-.526027 3.263761-.119552 2.689913-.119552C2.020423-.119552 1.960648-.777086 1.960648-1.099875C1.960648-1.78132 2.283437-2.701868 2.606227-3.56264C2.737733-3.90934 2.809465-4.076712 2.809465-4.315816C2.809465-4.817933 2.450809-5.272229 1.865006-5.272229C.765131-5.272229 .32279-3.53873 .32279-3.443088C.32279-3.395268 .37061-3.335492 .454296-3.335492C.561893-3.335492 .573848-3.383313 .621669-3.550685C.908593-4.554919 1.362889-5.033126 1.829141-5.033126C1.936737-5.033126 2.139975-5.033126 2.139975-4.638605C2.139975-4.327771 2.008468-3.981071 1.829141-3.526775C1.243337-1.960648 1.243337-1.566127 1.243337-1.279203C1.243337-.143462 2.056289 .119552 2.654047 .119552C3.000747 .119552 3.431133 .011955 3.849564-.430386L3.861519-.418431C3.682192 .286924 3.56264 .753176 3.144209 1.338979Z"/>
</defs>
<g id="page1" transform="translate(64.269077 -4.639496)">
<use x="-58.038292" y="12.936382" xlink:href="#g1-107"/>
<use x="-63.879486" y="16.379464" xlink:href="#g0-80"/>
<use x="-64.269077" y="44.302068" xlink:href="#g1-105"/>
<use x="-60.275645" y="44.302068" xlink:href="#g3-61"/>
<use x="-51.170993" y="44.302068" xlink:href="#g3-49"/>
<use x="-42.448788" y="29.291144" xlink:href="#g2-27"/>
<use x="-32.250134" y="23.043804" xlink:href="#g3-50"/>
<use x="-32.867813" y="33.547096" xlink:href="#g1-121"/>
</g>
</svg>
