<svg xmlns="http://www.w3.org/2000/svg" xmlns:xlink="http://www.w3.org/1999/xlink" version="1.1" width="287.9804916666667px" height="152.24639583333334px" viewBox="0 0 69.115318 36.539135">
<defs>
<path id="g0-80" d="M7.247701 9.193045L1.136219 16.750624C.998496 16.922778 .98128 16.957209 .98128 17.026071C.98128 17.215441 1.136219 17.215441 1.446097 17.215441H15.717698L17.198225 12.928796H16.767839C16.337453 14.219954 15.184019 15.270096 13.720706 15.769344C13.445259 15.855421 12.257394 16.268592 9.726724 16.268592H2.410162L8.38392 8.883167C8.504428 8.728229 8.538859 8.676582 8.538859 8.60772S8.521643 8.521643 8.418351 8.366704L2.823332 .688618H9.640647C11.603207 .688618 15.562759 .809126 16.767839 4.028413H17.198225L15.717698 0H1.446097C.98128 0 .964065 .017215 .964065 .550894L7.247701 9.193045Z"/>
<path id="g2-61" d="M11.069528-5.526157C11.32776-5.526157 11.585992-5.526157 11.585992-5.818819C11.585992-6.128697 11.293329-6.128697 11.000667-6.128697H1.377235C1.084573-6.128697 .79191-6.128697 .79191-5.818819C.79191-5.526157 1.050142-5.526157 1.308374-5.526157H11.069528ZM11.000667-2.461808C11.293329-2.461808 11.585992-2.461808 11.585992-2.771686C11.585992-3.064348 11.32776-3.064348 11.069528-3.064348H1.308374C1.050142-3.064348 .79191-3.064348 .79191-2.771686C.79191-2.461808 1.084573-2.461808 1.377235-2.461808H11.000667Z"/>
<path id="g1-88" d="M8.177334-6.989469L6.559083-10.759651C6.782884-11.172821 7.299347-11.241683 7.505932-11.258898C7.609225-11.258898 7.798595-11.276114 7.798595-11.568776C7.798595-11.758146 7.643656-11.758146 7.540363-11.758146C7.247701-11.758146 6.903392-11.723715 6.610729-11.723715H5.612234C4.562092-11.723715 3.804612-11.758146 3.787397-11.758146C3.649673-11.758146 3.477519-11.758146 3.477519-11.431053C3.477519-11.258898 3.632458-11.258898 3.856259-11.258898C4.854754-11.258898 4.923616-11.086744 5.09577-10.673573L7.144408-5.887681L3.408657-1.893698C2.788901-1.222296 2.048637-.56811 .774695-.499248C.56811-.482032 .430386-.482032 .430386-.172154C.430386-.120508 .447601 0 .636971 0C.877987 0 1.136219-.034431 1.377235-.034431H2.186361C2.737255-.034431 3.339796 0 3.873474 0C3.993982 0 4.200568 0 4.200568-.309878C4.200568-.482032 4.080059-.499248 3.976767-.499248C3.632458-.533679 3.408657-.723049 3.408657-.998496C3.408657-1.291158 3.615243-1.497743 4.11449-2.014207L5.646665-3.684104C6.025404-4.080059 6.937823-5.078555 7.316562-5.457295L9.124184-1.222296C9.141399-1.187865 9.210261-1.015711 9.210261-.998496C9.210261-.843557 8.831521-.533679 8.280627-.499248C8.177334-.499248 7.987965-.482032 7.987965-.172154C7.987965 0 8.160119 0 8.246196 0C8.538859 0 8.883167-.034431 9.17583-.034431H11.069528C11.379406-.034431 11.7065 0 11.999162 0C12.11967 0 12.30904 0 12.30904-.327093C12.30904-.499248 12.136886-.499248 11.981947-.499248C10.94902-.516463 10.91459-.60254 10.621927-1.239512L8.349489-6.576298L10.53585-8.917598C10.708004-9.089753 11.103959-9.520139 11.258898-9.692293C11.999162-10.466988 12.68778-11.172821 14.082231-11.258898C14.254385-11.276114 14.426539-11.276114 14.426539-11.568776C14.426539-11.758146 14.2716-11.758146 14.202739-11.758146C13.961723-11.758146 13.703491-11.723715 13.462475-11.723715H12.670564C12.11967-11.723715 11.51713-11.758146 10.983451-11.758146C10.862943-11.758146 10.656358-11.758146 10.656358-11.448268C10.656358-11.276114 10.776866-11.258898 10.880159-11.258898C11.155606-11.224467 11.448268-11.086744 11.448268-10.759651L11.431053-10.72522C11.413837-10.604712 11.379406-10.432557 11.190037-10.225972L8.177334-6.989469Z"/>
<path id="g1-110" d="M3.546381-5.044124C3.580812-5.147417 4.011198-6.008189 4.648169-6.559083C5.09577-6.972254 5.681095-7.247701 6.352498-7.247701C7.041115-7.247701 7.282131-6.731237 7.282131-6.04262C7.282131-5.06134 6.576298-3.098779 6.23199-2.169146C6.077051-1.755975 5.990973-1.532174 5.990973-1.222296C5.990973-.447601 6.524652 .172154 7.350993 .172154C8.952029 .172154 9.55457-2.358515 9.55457-2.461808C9.55457-2.547885 9.485708-2.616747 9.382415-2.616747C9.227476-2.616747 9.210261-2.565101 9.124184-2.272438C8.728229-.860772 8.074042-.172154 7.40264-.172154C7.230485-.172154 6.955038-.18937 6.955038-.740264C6.955038-1.17065 7.144408-1.687113 7.247701-1.928129C7.592009-2.874979 8.315058-4.803108 8.315058-5.784388C8.315058-6.817315 7.712518-7.592009 6.404144-7.592009C4.87197-7.592009 4.062844-6.507437 3.752966-6.077051C3.70132-7.058331 2.995487-7.592009 2.238007-7.592009C1.687113-7.592009 1.308374-7.264916 1.015711-6.679591C.705833-6.059835 .464817-5.026909 .464817-4.958047S.533679-4.803108 .654187-4.803108C.79191-4.803108 .809126-4.820323 .912418-5.216279C1.187865-6.26642 1.497743-7.247701 2.186361-7.247701C2.582316-7.247701 2.72004-6.972254 2.72004-6.45579C2.72004-6.077051 2.547885-5.405648 2.427377-4.87197L1.945345-3.012702C1.876483-2.685609 1.687113-1.910914 1.601036-1.601036C1.480528-1.153435 1.291158-.344309 1.291158-.258232C1.291158-.017215 1.480528 .172154 1.73876 .172154C1.945345 .172154 2.186361 .068862 2.324085-.18937C2.358515-.275447 2.513454-.877987 2.599532-1.222296L2.978271-2.771686L3.546381-5.044124Z"/>
<path id="g1-120" d="M8.160119-7.0239C7.609225-6.920607 7.40264-6.507437 7.40264-6.180343C7.40264-5.767173 7.729733-5.629449 7.970749-5.629449C8.487212-5.629449 8.848737-6.077051 8.848737-6.541868C8.848737-7.264916 8.022395-7.592009 7.299347-7.592009C6.249205-7.592009 5.66388-6.559083 5.508941-6.23199C5.112986-7.523148 4.045629-7.592009 3.735751-7.592009C1.979776-7.592009 1.050142-5.336787 1.050142-4.958047C1.050142-4.889185 1.119004-4.803108 1.239512-4.803108C1.377235-4.803108 1.411666-4.906401 1.446097-4.975262C2.031422-6.886176 3.184857-7.247701 3.684104-7.247701C4.458799-7.247701 4.613738-6.524652 4.613738-6.111482C4.613738-5.732742 4.510446-5.336787 4.30386-4.510446L3.718535-2.15193C3.460304-1.119004 2.961056-.172154 2.048637-.172154C1.96256-.172154 1.532174-.172154 1.17065-.395955C1.790406-.516463 1.928129-1.032926 1.928129-1.239512C1.928129-1.583821 1.669898-1.790406 1.342804-1.790406C.929634-1.790406 .482032-1.428882 .482032-.877987C.482032-.154939 1.291158 .172154 2.031422 .172154C2.857763 .172154 3.443088-.482032 3.804612-1.187865C4.080059-.172154 4.940832 .172154 5.577803 .172154C7.333778 .172154 8.263412-2.083068 8.263412-2.461808C8.263412-2.547885 8.19455-2.616747 8.091257-2.616747C7.936318-2.616747 7.919103-2.53067 7.867456-2.392946C7.40264-.877987 6.404144-.172154 5.629449-.172154C5.026909-.172154 4.699815-.619756 4.699815-1.325589C4.699815-1.704329 4.768677-1.979776 5.044124-3.115995L5.646665-5.457295C5.904896-6.490221 6.490221-7.247701 7.282131-7.247701C7.316562-7.247701 7.798595-7.247701 8.160119-7.0239Z"/>
</defs>
<g id="page1" transform="translate(64.269077 -2.912662)">
<rect x="-64.269077" y="17.304128" height=".688595" width="9.578993"/>
<use x="-64.269077" y="27.470715" xlink:href="#g1-120"/>
<use x="-49.90806" y="27.470715" xlink:href="#g2-61"/>
<use x="-31.538207" y="2.912662" xlink:href="#g0-80"/>
<use x="-10.497085" y="15.824341" xlink:href="#g1-88"/>
<rect x="-31.538207" y="22.822557" height=".688595" width="36.384448"/>
<use x="-18.377051" y="39.279642" xlink:href="#g1-110"/>
</g>
</svg>
