<svg xmlns="http://www.w3.org/2000/svg" xmlns:xlink="http://www.w3.org/1999/xlink" version="1.1" width="796.0315125px" height="215.12127916666665px" viewBox="0 0 191.047563 51.629107">
<defs>
<path id="g6-105" d="M2.82939-6.22665C2.82939-6.425903 2.689913-6.585305 2.460772-6.585305C2.191781-6.585305 1.92279-6.326276 1.92279-6.057285C1.92279-5.867995 2.062267-5.69863 2.30137-5.69863C2.530511-5.69863 2.82939-5.927771 2.82939-6.22665ZM2.072229-2.480697C2.191781-2.769614 2.191781-2.789539 2.291407-3.058531C2.371108-3.257783 2.420922-3.39726 2.420922-3.58655C2.420922-4.034869 2.102117-4.403487 1.603985-4.403487C.667497-4.403487 .288917-2.958904 .288917-2.86924C.288917-2.769614 .388543-2.769614 .408468-2.769614C.508095-2.769614 .518057-2.789539 .56787-2.948941C.836862-3.88543 1.235367-4.184309 1.574097-4.184309C1.653798-4.184309 1.823163-4.184309 1.823163-3.865504C1.823163-3.656289 1.753425-3.447073 1.713574-3.347447C1.633873-3.088418 1.185554-1.932752 1.026152-1.504359C.926526-1.24533 .797011-.916563 .797011-.707347C.797011-.239103 1.135741 .109589 1.613948 .109589C2.550436 .109589 2.919054-1.334994 2.919054-1.424658C2.919054-1.524284 2.82939-1.524284 2.799502-1.524284C2.699875-1.524284 2.699875-1.494396 2.650062-1.344956C2.470735-.71731 2.141968-.109589 1.633873-.109589C1.464508-.109589 1.39477-.209215 1.39477-.438356C1.39477-.687422 1.454545-.826899 1.683686-1.43462L2.072229-2.480697Z"/>
<path id="g2-11" d="M5.535243-3.024658C5.535243-4.184309 4.877709-5.272229 3.610461-5.272229C2.044334-5.272229 .478207-3.56264 .478207-1.865006C.478207-.824907 1.123786 .119552 2.343213 .119552C3.084433 .119552 3.969116-.167372 4.817933-.884682C4.985305-.215193 5.355915 .119552 5.869988 .119552C6.515567 .119552 6.838356-.549938 6.838356-.705355C6.838356-.812951 6.75467-.812951 6.718804-.812951C6.623163-.812951 6.611208-.777086 6.575342-.681445C6.467746-.382565 6.192777-.119552 5.905853-.119552C5.535243-.119552 5.535243-.884682 5.535243-1.613948C6.75467-3.072478 7.041594-4.578829 7.041594-4.590785C7.041594-4.698381 6.945953-4.698381 6.910087-4.698381C6.802491-4.698381 6.790535-4.662516 6.742715-4.447323C6.587298-3.921295 6.276463-2.988792 5.535243-2.008468V-3.024658ZM4.782067-1.171606C3.730012-.227148 2.785554-.119552 2.367123-.119552C1.518306-.119552 1.279203-.872727 1.279203-1.43462C1.279203-1.948692 1.542217-3.16812 1.912827-3.825654C2.402989-4.662516 3.072478-5.033126 3.610461-5.033126C4.770112-5.033126 4.770112-3.514819 4.770112-2.510585C4.770112-2.211706 4.758157-1.900872 4.758157-1.601993C4.758157-1.362889 4.770112-1.303113 4.782067-1.171606Z"/>
<path id="g2-27" d="M6.073225-4.507098C6.228643-4.507098 6.623163-4.507098 6.623163-4.889664C6.623163-5.152677 6.396015-5.152677 6.180822-5.152677H3.53873C1.745455-5.152677 .454296-3.156164 .454296-1.745455C.454296-.729265 1.111831 .119552 2.187796 .119552C3.598506 .119552 5.140722-1.398755 5.140722-3.19203C5.140722-3.658281 5.033126-4.112578 4.746202-4.507098H6.073225ZM2.199751-.119552C1.590037-.119552 1.147696-.585803 1.147696-1.41071C1.147696-2.12802 1.578082-4.507098 3.335492-4.507098C3.849564-4.507098 4.423412-4.25604 4.423412-3.335492C4.423412-2.917061 4.23213-1.912827 3.813699-1.219427C3.383313-.514072 2.737733-.119552 2.199751-.119552Z"/>
<path id="g2-105" d="M3.383313-1.709589C3.383313-1.769365 3.335492-1.817186 3.263761-1.817186C3.156164-1.817186 3.144209-1.78132 3.084433-1.578082C2.773599-.490162 2.283437-.119552 1.888917-.119552C1.745455-.119552 1.578082-.155417 1.578082-.514072C1.578082-.836862 1.721544-1.195517 1.853051-1.554172L2.689913-3.777833C2.725778-3.873474 2.809465-4.088667 2.809465-4.315816C2.809465-4.817933 2.450809-5.272229 1.865006-5.272229C.765131-5.272229 .32279-3.53873 .32279-3.443088C.32279-3.395268 .37061-3.335492 .454296-3.335492C.561893-3.335492 .573848-3.383313 .621669-3.550685C.908593-4.554919 1.362889-5.033126 1.829141-5.033126C1.936737-5.033126 2.139975-5.021171 2.139975-4.638605C2.139975-4.327771 1.984558-3.93325 1.888917-3.670237L1.052055-1.446575C.980324-1.255293 .908593-1.06401 .908593-.848817C.908593-.310834 1.279203 .119552 1.853051 .119552C2.952927 .119552 3.383313-1.625903 3.383313-1.709589ZM3.287671-7.460025C3.287671-7.639352 3.144209-7.854545 2.881196-7.854545C2.606227-7.854545 2.295392-7.591532 2.295392-7.280697C2.295392-6.981818 2.546451-6.886177 2.689913-6.886177C3.012702-6.886177 3.287671-7.197011 3.287671-7.460025Z"/>
<path id="g2-107" d="M3.359402-7.998007C3.371357-8.045828 3.395268-8.117559 3.395268-8.177335C3.395268-8.296887 3.275716-8.296887 3.251806-8.296887C3.239851-8.296887 2.809465-8.261021 2.594271-8.237111C2.391034-8.225156 2.211706-8.201245 1.996513-8.18929C1.709589-8.16538 1.625903-8.153425 1.625903-7.938232C1.625903-7.81868 1.745455-7.81868 1.865006-7.81868C2.47472-7.81868 2.47472-7.711083 2.47472-7.591532C2.47472-7.543711 2.47472-7.519801 2.414944-7.304608L.705355-.466252C.657534-.286924 .657534-.263014 .657534-.191283C.657534 .071731 .860772 .119552 .980324 .119552C1.315068 .119552 1.3868-.143462 1.482441-.514072L2.044334-2.749689C2.905106-2.654047 3.419178-2.295392 3.419178-1.721544C3.419178-1.649813 3.419178-1.601993 3.383313-1.422665C3.335492-1.243337 3.335492-1.099875 3.335492-1.0401C3.335492-.3467 3.789788 .119552 4.399502 .119552C4.94944 .119552 5.236364-.382565 5.332005-.549938C5.583064-.992279 5.738481-1.661768 5.738481-1.709589C5.738481-1.769365 5.69066-1.817186 5.618929-1.817186C5.511333-1.817186 5.499377-1.769365 5.451557-1.578082C5.284184-.956413 5.033126-.119552 4.423412-.119552C4.184309-.119552 4.028892-.239103 4.028892-.6934C4.028892-.920548 4.076712-1.183562 4.124533-1.362889C4.172354-1.578082 4.172354-1.590037 4.172354-1.733499C4.172354-2.438854 3.53873-2.833375 2.438854-2.976837C2.86924-3.239851 3.299626-3.706102 3.466999-3.88543C4.148443-4.65056 4.614695-5.033126 5.164633-5.033126C5.439601-5.033126 5.511333-4.961395 5.595019-4.889664C5.152677-4.841843 4.985305-4.531009 4.985305-4.291905C4.985305-4.004981 5.212453-3.90934 5.379826-3.90934C5.702615-3.90934 5.989539-4.184309 5.989539-4.566874C5.989539-4.913574 5.71457-5.272229 5.176588-5.272229C4.519054-5.272229 3.981071-4.805978 3.132254-3.849564C3.012702-3.706102 2.570361-3.251806 2.12802-3.084433L3.359402-7.998007Z"/>
<path id="g2-120" d="M5.66675-4.877709C5.284184-4.805978 5.140722-4.519054 5.140722-4.291905C5.140722-4.004981 5.36787-3.90934 5.535243-3.90934C5.893898-3.90934 6.144956-4.220174 6.144956-4.542964C6.144956-5.045081 5.571108-5.272229 5.068991-5.272229C4.339726-5.272229 3.93325-4.554919 3.825654-4.327771C3.550685-5.224408 2.809465-5.272229 2.594271-5.272229C1.374844-5.272229 .729265-3.706102 .729265-3.443088C.729265-3.395268 .777086-3.335492 .860772-3.335492C.956413-3.335492 .980324-3.407223 1.004234-3.455044C1.41071-4.782067 2.211706-5.033126 2.558406-5.033126C3.096389-5.033126 3.203985-4.531009 3.203985-4.244085C3.203985-3.981071 3.132254-3.706102 2.988792-3.132254L2.582316-1.494396C2.402989-.777086 2.056289-.119552 1.422665-.119552C1.362889-.119552 1.06401-.119552 .812951-.274969C1.243337-.358655 1.338979-.71731 1.338979-.860772C1.338979-1.099875 1.159651-1.243337 .932503-1.243337C.645579-1.243337 .334745-.992279 .334745-.609714C.334745-.107597 .896638 .119552 1.41071 .119552C1.984558 .119552 2.391034-.334745 2.642092-.824907C2.833375-.119552 3.431133 .119552 3.873474 .119552C5.092902 .119552 5.738481-1.446575 5.738481-1.709589C5.738481-1.769365 5.69066-1.817186 5.618929-1.817186C5.511333-1.817186 5.499377-1.75741 5.463512-1.661768C5.140722-.609714 4.447323-.119552 3.90934-.119552C3.490909-.119552 3.263761-.430386 3.263761-.920548C3.263761-1.183562 3.311582-1.374844 3.502864-2.163885L3.921295-3.789788C4.100623-4.507098 4.507098-5.033126 5.057036-5.033126C5.080946-5.033126 5.415691-5.033126 5.66675-4.877709Z"/>
<path id="g2-121" d="M3.144209 1.338979C2.82142 1.793275 2.355168 2.199751 1.769365 2.199751C1.625903 2.199751 1.052055 2.175841 .872727 1.625903C.908593 1.637858 .968369 1.637858 .992279 1.637858C1.350934 1.637858 1.590037 1.327024 1.590037 1.052055S1.362889 .681445 1.183562 .681445C.992279 .681445 .573848 .824907 .573848 1.41071C.573848 2.020423 1.08792 2.438854 1.769365 2.438854C2.964882 2.438854 4.172354 1.338979 4.507098 .011955L5.678705-4.65056C5.69066-4.710336 5.71457-4.782067 5.71457-4.853798C5.71457-5.033126 5.571108-5.152677 5.391781-5.152677C5.284184-5.152677 5.033126-5.104857 4.937484-4.746202L4.052802-1.231382C3.993026-1.016189 3.993026-.992279 3.897385-.860772C3.658281-.526027 3.263761-.119552 2.689913-.119552C2.020423-.119552 1.960648-.777086 1.960648-1.099875C1.960648-1.78132 2.283437-2.701868 2.606227-3.56264C2.737733-3.90934 2.809465-4.076712 2.809465-4.315816C2.809465-4.817933 2.450809-5.272229 1.865006-5.272229C.765131-5.272229 .32279-3.53873 .32279-3.443088C.32279-3.395268 .37061-3.335492 .454296-3.335492C.561893-3.335492 .573848-3.383313 .621669-3.550685C.908593-4.554919 1.362889-5.033126 1.829141-5.033126C1.936737-5.033126 2.139975-5.033126 2.139975-4.638605C2.139975-4.327771 2.008468-3.981071 1.829141-3.526775C1.243337-1.960648 1.243337-1.566127 1.243337-1.279203C1.243337-.143462 2.056289 .119552 2.654047 .119552C3.000747 .119552 3.431133 .011955 3.849564-.430386L3.861519-.418431C3.682192 .286924 3.56264 .753176 3.144209 1.338979Z"/>
<path id="g0-32" d="M13.032089 50.768335C13.032089 50.716689 13.032089 50.682258 12.928796 50.56175C11.276114 48.564759 9.898879 46.361182 8.883167 43.968236C6.627945 38.700311 5.732742 32.537183 5.732742 25.134544C5.732742 17.800766 6.576298 11.362191 9.124184 5.715526C10.122679 3.529165 11.431053 1.497743 12.963227-.361524C12.997658-.413171 13.032089-.447601 13.032089-.516463C13.032089-.688618 12.911581-.688618 12.653349-.688618S12.360687-.688618 12.326256-.654187C12.30904-.636971 11.241683 .395955 9.898879 2.289654C6.903392 6.524652 5.388433 11.585992 4.613738 16.716193C4.200568 19.487879 4.062844 22.311211 4.062844 25.117328C4.062844 31.555903 4.87197 38.132202 7.62644 44.019882C8.848737 46.636629 10.484203 48.995145 12.188532 50.785551C12.343471 50.923274 12.360687 50.94049 12.653349 50.94049C12.911581 50.94049 13.032089 50.94049 13.032089 50.768335Z"/>
<path id="g0-33" d="M9.55457 25.134544C9.55457 18.695969 8.745444 12.11967 5.990973 6.23199C4.768677 3.615243 3.13321 1.256727 1.428882-.533679C1.273943-.671402 1.256727-.688618 .964065-.688618C.723049-.688618 .585325-.688618 .585325-.516463C.585325-.447601 .654187-.361524 .688618-.309878C2.3413 1.687113 3.718535 3.89069 4.734246 6.283636C6.989469 11.551561 7.884672 17.714689 7.884672 25.117328C7.884672 32.451106 7.041115 38.889681 4.49323 44.536346C3.494734 46.722707 2.186361 48.754129 .654187 50.613396C.636971 50.647827 .585325 50.716689 .585325 50.768335C.585325 50.94049 .723049 50.94049 .964065 50.94049C1.222296 50.94049 1.256727 50.94049 1.291158 50.906059C1.308374 50.888843 2.375731 49.855917 3.718535 47.962218C6.714022 43.72722 8.228981 38.66588 9.003676 33.535679C9.416846 30.763993 9.55457 27.940661 9.55457 25.134544Z"/>
<path id="g0-80" d="M7.247701 9.193045L1.136219 16.750624C.998496 16.922778 .98128 16.957209 .98128 17.026071C.98128 17.215441 1.136219 17.215441 1.446097 17.215441H15.717698L17.198225 12.928796H16.767839C16.337453 14.219954 15.184019 15.270096 13.720706 15.769344C13.445259 15.855421 12.257394 16.268592 9.726724 16.268592H2.410162L8.38392 8.883167C8.504428 8.728229 8.538859 8.676582 8.538859 8.60772S8.521643 8.521643 8.418351 8.366704L2.823332 .688618H9.640647C11.603207 .688618 15.562759 .809126 16.767839 4.028413H17.198225L15.717698 0H1.446097C.98128 0 .964065 .017215 .964065 .550894L7.247701 9.193045Z"/>
<path id="g1-0" d="M11.344976-3.959551C11.637638-3.959551 11.947516-3.959551 11.947516-4.30386S11.637638-4.648169 11.344976-4.648169H2.031422C1.73876-4.648169 1.428882-4.648169 1.428882-4.30386S1.73876-3.959551 2.031422-3.959551H11.344976Z"/>
<path id="g5-49" d="M4.579307-11.000667C4.579307-11.362191 4.562092-11.379406 4.321076-11.379406C3.649673-10.570281 2.633962-10.312049 1.669898-10.277618C1.618251-10.277618 1.532174-10.277618 1.514959-10.243187S1.497743-10.174326 1.497743-9.812801C2.031422-9.812801 2.926625-9.916094 3.615243-10.329265V-1.256727C3.615243-.654187 3.580812-.447601 2.100284-.447601H1.583821V0C2.410162-.017215 3.270934-.034431 4.097275-.034431S5.784388-.017215 6.610729 0V-.447601H6.094266C4.613738-.447601 4.579307-.636971 4.579307-1.256727V-11.000667Z"/>
<path id="g5-61" d="M11.069528-5.526157C11.32776-5.526157 11.585992-5.526157 11.585992-5.818819C11.585992-6.128697 11.293329-6.128697 11.000667-6.128697H1.377235C1.084573-6.128697 .79191-6.128697 .79191-5.818819C.79191-5.526157 1.050142-5.526157 1.308374-5.526157H11.069528ZM11.000667-2.461808C11.293329-2.461808 11.585992-2.461808 11.585992-2.771686C11.585992-3.064348 11.32776-3.064348 11.069528-3.064348H1.308374C1.050142-3.064348 .79191-3.064348 .79191-2.771686C.79191-2.461808 1.084573-2.461808 1.377235-2.461808H11.000667Z"/>
<path id="g4-49" d="M3.443088-7.663263C3.443088-7.938232 3.443088-7.950187 3.203985-7.950187C2.917061-7.627397 2.319303-7.185056 1.08792-7.185056V-6.838356C1.362889-6.838356 1.960648-6.838356 2.618182-7.149191V-.920548C2.618182-.490162 2.582316-.3467 1.530262-.3467H1.159651V0C1.482441-.02391 2.642092-.02391 3.036613-.02391S4.578829-.02391 4.901619 0V-.3467H4.531009C3.478954-.3467 3.443088-.490162 3.443088-.920548V-7.663263Z"/>
<path id="g4-50" d="M5.260274-2.008468H4.99726C4.961395-1.80523 4.865753-1.147696 4.746202-.956413C4.662516-.848817 3.981071-.848817 3.622416-.848817H1.41071C1.733499-1.123786 2.462765-1.888917 2.773599-2.175841C4.590785-3.849564 5.260274-4.471233 5.260274-5.654795C5.260274-7.029639 4.172354-7.950187 2.785554-7.950187S.585803-6.766625 .585803-5.738481C.585803-5.128767 1.111831-5.128767 1.147696-5.128767C1.398755-5.128767 1.709589-5.308095 1.709589-5.69066C1.709589-6.025405 1.482441-6.252553 1.147696-6.252553C1.0401-6.252553 1.016189-6.252553 .980324-6.240598C1.207472-7.053549 1.853051-7.603487 2.630137-7.603487C3.646326-7.603487 4.267995-6.75467 4.267995-5.654795C4.267995-4.638605 3.682192-3.753923 3.000747-2.988792L.585803-.286924V0H4.94944L5.260274-2.008468Z"/>
<path id="g4-61" d="M8.069738-3.873474C8.237111-3.873474 8.452304-3.873474 8.452304-4.088667C8.452304-4.315816 8.249066-4.315816 8.069738-4.315816H1.028144C.860772-4.315816 .645579-4.315816 .645579-4.100623C.645579-3.873474 .848817-3.873474 1.028144-3.873474H8.069738ZM8.069738-1.649813C8.237111-1.649813 8.452304-1.649813 8.452304-1.865006C8.452304-2.092154 8.249066-2.092154 8.069738-2.092154H1.028144C.860772-2.092154 .645579-2.092154 .645579-1.876961C.645579-1.649813 .848817-1.649813 1.028144-1.649813H8.069738Z"/>
<use id="g3-11" xlink:href="#g2-11" transform="scale(1.44)"/>
<use id="g3-27" xlink:href="#g2-27" transform="scale(1.44)"/>
<use id="g3-107" xlink:href="#g2-107" transform="scale(1.44)"/>
</defs>
<g id="page1" transform="translate(64.269077 -2.912639)">
<use x="-64.269077" y="33.039934" xlink:href="#g3-11"/>
<use x="-48.655772" y="33.039934" xlink:href="#g5-61"/>
<use x="-15.817729" y="21.39356" xlink:href="#g3-107"/>
<rect x="-30.285919" y="28.391776" height=".688595" width="38.281235"/>
<use x="-30.285919" y="44.848861" xlink:href="#g3-107"/>
<use x="-17.115424" y="44.848861" xlink:href="#g1-0"/>
<use x=".100031" y="44.848861" xlink:href="#g5-49"/>
<use x="12.060045" y="3.601257" xlink:href="#g0-32"/>
<use x="25.68899" y="33.039934" xlink:href="#g5-49"/>
<use x="37.409924" y="33.039934" xlink:href="#g1-0"/>
<use x="55.820892" y="6.705628" xlink:href="#g0-80"/>
<use x="73.992799" y="11.321619" xlink:href="#g2-107"/>
<use x="73.992799" y="24.519046" xlink:href="#g2-105"/>
<use x="77.986231" y="24.519046" xlink:href="#g4-61"/>
<use x="87.090882" y="24.519046" xlink:href="#g4-49"/>
<use x="96.311219" y="19.617307" xlink:href="#g3-27"/>
<use x="106.509873" y="13.369968" xlink:href="#g4-50"/>
<use x="105.892194" y="23.873259" xlink:href="#g2-121"/>
<use x="111.599897" y="26.325991" xlink:href="#g6-105"/>
<rect x="55.820892" y="28.391776" height=".688595" width="60.20751"/>
<use x="77.559061" y="44.848861" xlink:href="#g3-27"/>
<use x="87.757714" y="39.875522" xlink:href="#g4-50"/>
<use x="87.140036" y="49.104813" xlink:href="#g2-120"/>
<use x="117.223916" y="3.601257" xlink:href="#g0-33"/>
</g>
</svg>
